<svg xmlns="http://www.w3.org/2000/svg" xmlns:xlink="http://www.w3.org/1999/xlink" width="198.5" height="163.5" viewBox="0 0 198.5 163.5"><defs><path id="a" d="M-122.5-29.64h442.667V321.5H-122.5z"/></defs><clipPath id="b"><use xlink:href="#a" overflow="visible"/></clipPath><g clip-path="url(#b)"><defs><path id="c" d="M-122.5-29.64h442.667v183.947H-122.5z"/></defs><clipPath id="d"><use xlink:href="#c" overflow="visible"/></clipPath><path clip-path="url(#d)" fill="#002C3F" d="M139.486 125.314l10.302.99-5.548 20.404-7.13 20.602 3.96 51.108 15.452 30.11s-55.268-4.755-60.22-3.963l1.584-9.904-5.546 10.302-50.514-4.358s3.764-16.838 4.754-17.63c.99-.793 37.836-89.142 37.836-89.142s22.583-7.528 25.95-7.924c3.368-.395 29.12-.594 29.12-.594"/><path clip-path="url(#d)" fill="#1F6690" d="M146.486 134.427l5.81.51 6.868 13.483-1.057 27.477-2.905-.51-4.226-1.78-14.263-1.02s-1.585-5.596-1.057-6.614c.528-1.016 8.716-25.44 8.716-25.44l2.114-6.106z"/><g opacity=".28" clip-path="url(#d)"><defs><path id="e" d="M139.883 148.954h18.314v26.942h-18.314z"/></defs><clipPath id="f"><use xlink:href="#e" overflow="visible"/></clipPath><path clip-path="url(#f)" fill="#221F1F" d="M155.202 175.388l2.905.508.09-2.343-1.41-2.94-1.32-19.81-1.058-1.85-2.642 2.378s-5.81 3.963-4.754 15.85l-7.132.263.18 5.385 10.913.78 4.227 1.78z"/></g><g opacity=".28" clip-path="url(#d)"><defs><path id="g" d="M137.15 134.648h11.702v38.55H137.15z"/></defs><clipPath id="h"><use xlink:href="#g" overflow="visible"/></clipPath><path clip-path="url(#h)" fill="#221F1F" d="M144.24 159.188s2.772-14.644 4.612-24.474l-.767-.067-2.113 6.106s-8.188 24.423-8.716 25.44c-.53 1.02 1.056 6.615 1.056 6.615l5.438.388c-.032-4.872.09-9.783.49-14.008"/></g><path clip-path="url(#d)" fill="#002C3F" d="M122.847 99.76s16.838 1.586 26.544 4.557c0 0-8.715 15.45-8.715 20.206 0 4.754-9.508 1.584-9.508 1.584s-13.47-11.29-13.867-12.876c-.396-1.583-1.98-11.092-1.98-11.092l7.527-2.377zM54.11 112.835l-2.972-6.735s-2.774-6.537 14.658-6.537l7.33 11.885-.198 9.707-10.3-1.783-8.52-6.537z"/><path clip-path="url(#d)" fill="#C9DDDC" d="M134.93 183.752l-.395 15.45-59.824.596 10.302-66.758 6.34-6.735s24.166-.594 25.354.198c1.188.793 15.056 11.688 15.848 12.48s4.754 5.15 5.348 6.14c.595.99 2.576 11.69 2.576 11.69l-5.547 26.94z"/><path clip-path="url(#d)" fill="#879696" d="M137.902 145.124c-.108-.18-.33-.475-.623-.837-.424.043-.755.153-.958.352-1.722 1.673-4.362 6.163-4.892 8.012-.527 1.85-.792 7.66-.792 7.66s-1.145 18.53-.336 38.933l4.23-.042.397-15.45 5.545-26.942c.002 0-1.98-10.696-2.573-11.686"/><g opacity=".47" clip-path="url(#d)"><defs><path id="i" d="M85.883 126.09h53.872v38.495H85.883z"/></defs><clipPath id="j"><use xlink:href="#i" overflow="visible"/></clipPath><path clip-path="url(#j)" fill="#365B57" d="M138.592 150.31l.59-.083c-.504-2.417-1.022-4.673-1.28-5.102-.593-.99-4.556-5.35-5.35-6.14-.79-.794-14.657-11.69-15.846-12.48s-25.356-.2-25.356-.2l-5.467 5.81 2.92 1.057c3.378.545 9.51 3.298 11.2 4.078 0 .124-.006.24-.004.366v.334c.016.75.05 1.522.102 2.314.01.142.02.284.028.427.06.805.137 1.628.236 2.477.014.12.03.242.047.363.11.896.24 1.81.4 2.758 0 0 1.343 6.19 4.394 10.13 0 0-.128 1.527-2.83 1.39 0 0 2.934.607 4.04.122 0 0-1.707 2.243-3.418 1.974 0 0 3.653 1.014 5.21.13 0 0-2.19 1.137-4.21 1.073 0 0 4.71 1.374 7.637-.533 0 0-2.127 1.63-2.926 1.907 0 0 5.065 1.49 9.62-1.977 0 0-.883 2.128-2.316 2.66 0 0 3.055-.92 4.12-1.734l-1.065.814s2.574-.35 3.44-1.222l-.928 1.217 2.81-1.558s-1.057 3.332-2.328 3.837c0 0 3.245-.78 6.09-4.515 0 0-.676 2.436-2.066 3.297 0 0 2.655-.194 3.12-2.94 0 0-.398 3.238-1.437 4.223 0 0 3.88-1.032 3.884-4.72 0 0 .547 2.777-.614 4.105 0 0 2.776-.544 2.92-4.418 0 0 .52 2.61-.144 3.874 0 0 2.596-1.862 1.348-4.877 0 0 1.323 2.333.7 3.926 0 0 3.068-2.09 1-4.998 0 0 1.888 1.588 1.215 4.028 0 0 4.145-5.257-.604-8.13l1.102-3 .014-.065z"/></g><path clip-path="url(#d)" fill="#879696" d="M98.943 154.5l-.792-5.018-11.092.792s-2.768 4.107-6.1 9.035l-6.248 40.487 8.135-.08C92.24 181.15 98.943 154.5 98.943 154.5"/><path clip-path="url(#d)" fill="#879696" d="M122.055 159.783s-7.727 29.516-42.392 35.656l3.566-16.244s22.58-9.112 24.166-11.29c1.585-2.18 4.754-4.16 4.754-4.16s8.32-7.728 8.716-7.132c.397.594 1.19 3.17 1.19 3.17"/><path clip-path="url(#d)" fill="#EA9B2E" d="M117.895 158.396s-10.3 18.818-41.6 8.122l-12.48 9.706 14.065 13.47s33.083-3.565 41.798-28.723l-.99-3.96-.793 1.386z"/><g opacity=".47" clip-path="url(#d)"><defs><path id="k" d="M118.49 144.633h17.43v25.45h-17.43z"/></defs><clipPath id="l"><use xlink:href="#k" overflow="visible"/></clipPath><path clip-path="url(#l)" fill="#365B57" d="M118.49 161.367l9.11 8.717 8.32-13.47s-4.556-9.51-5.15-9.905c-.595-.397-3.565-3.765-4.556-.99-.99 2.77-7.725 15.647-7.725 15.647"/></g><path clip-path="url(#d)" fill="#1F6690" d="M149.787 126.305s-14.46 22.78-16.44 40.41c0 0-2.973 22.188 4.16 50.91 0 0 16.837 27.734 19.016 30.903 0 0-14.063-30.506-14.857-51.504 0 0-1.188-23.573.794-38.43 0 0 6.338-27.733 7.327-32.29"/><g opacity=".47" clip-path="url(#d)"><defs><path id="m" d="M85.605 132.05h26.982v34.864H85.605z"/></defs><clipPath id="n"><use xlink:href="#m" overflow="visible"/></clipPath><path clip-path="url(#n)" fill="#365B57" d="M110.367 158.595l-8.122 8.32-10.697-18.622-5.943-8.518 6.736-7.725 11.094 4.16s8.717 7.13 9.112 7.923c.396.793-2.18 14.462-2.18 14.462"/></g><path clip-path="url(#d)" fill="#C9DDDC" d="M119.28 159.98l8.717 7.33 7.924-12.28s-4.16-10.698-4.753-11.095c-.595-.396-3.565-3.763-4.557-.99-.99 2.773-7.33 17.036-7.33 17.036"/><g opacity=".47" clip-path="url(#d)"><defs><path id="o" d="M119.28 141.86h16.64v22.725h-16.64z"/></defs><clipPath id="p"><use xlink:href="#o" overflow="visible"/></clipPath><path clip-path="url(#p)" fill="#365B57" d="M131.167 143.936c-.594-.396-3.566-3.764-4.557-.99-.99 2.773-7.33 17.036-7.33 17.036l2.04 1.714c.476-.177.918-.398 1.19-.673l-.778 1.02.082.07 2.575-1.43s-.47 1.48-1.162 2.618l.58.488c1.193-.64 2.823-1.785 4.344-3.782 0 0-.675 2.436-2.065 3.297 0 0 2.655-.194 3.12-2.94 0 0-.4 3.238-1.437 4.224 0 0 3.88-1.033 3.883-4.722 0 0 .14.71.128 1.58l4.14-6.416c0-.002-4.16-10.698-4.753-11.094"/></g><path clip-path="url(#d)" fill="#C9DDDC" d="M111.357 155.425l-8.122 8.32-10.697-18.62-5.943-8.52 6.736-7.724 11.094 4.16s8.716 7.132 9.11 7.924c.4.793-2.177 14.46-2.177 14.46"/><path clip-path="url(#d)" fill="#879696" d="M90.36 139.974c-.142.474-.233 1.024-.282 1.622l2.46 3.528 5.122 8.916c1.56-6.852 3-14.857 3-14.857l.793-6.736-.832-.83-5.124-1.923c-1.596 2.714-4.314 7.538-5.136 10.28"/><path clip-path="url(#d)" fill="#879696" d="M111.357 155.425s2.575-13.668 2.18-14.46c-.397-.793-9.112-7.924-9.112-7.924l-11.093-4.16-6.736 7.726 4.2 6.02 4.715-2.652 5.547 1.188s1.58 12.354 6.018 18.65l4.282-4.387z"/><path clip-path="url(#d)" fill="#1F6690" d="M57.278 129.08l-6.34 1.386-16.837 14.46-.79 27.337 11.29 5.15 11.29-5.35s2.775-31.496 3.17-32.09c.397-.594-1.782-10.894-1.782-10.894"/><path clip-path="url(#d)" fill="#B1B3BA" d="M124.28 77.073s8.743-31.02 11.28-39.697c2.535-8.678 3.717-14.74 3.717-14.74s21.44 7.55 28.337 7.206c6.9-.343-9.428-17.372-15.317-20.824-5.89-3.45-13.76-8.798-20.75-1.87-6.993 6.924-11.125 49.184-9.09 66.082l1.824 3.843z"/><path clip-path="url(#d)" fill="#BECED6" d="M125.225 74.887L123.3 73.45l10.39-52.286c1.296.59 5.588 1.473 5.588 1.473s-1.182 6.06-3.717 14.74c-1.986 6.79-8.23 32.584-10.335 37.51"/><path clip-path="url(#d)" fill="#02455D" d="M101.603 87.15c-.615 6.402 5.62 12.24 13.93 13.038 8.308.8 15.542-3.742 16.157-10.148.615-6.403-5.62-12.24-13.93-13.036-8.308-.798-15.543 3.744-16.157 10.146"/><path clip-path="url(#d)" fill="#02455D" d="M119.306 101.7s8.27.573 10.857-2.076c2.593-2.648 4.583-8 4.856-10.828.333-3.49-3.18-5.552-6.1-8.285-2.83-2.65-6.75-4.335-11.042-4.747-1.094-.105-2.198-.124-3.275-.055-7.668.473-13.655 5.237-14.24 11.325-.336 3.49 1.088 6.917 4.007 9.647 2.83 2.65 6.752 4.335 11.044 4.75 1.093.103 3.892.27 3.892.27"/><path clip-path="url(#d)" fill="#237AAF" d="M131.043 95.474c-.62 1.176-1.344 2.258-2.13 3.062-2.33 2.382-9.766 1.866-9.766 1.866s-2.52-.15-3.505-.244c-3.86-.37-7.385-1.887-9.933-4.27-.647-.604-1.206-1.245-1.686-1.914l27.02 1.5z"/><path clip-path="url(#d)" fill="#B1B3BA" d="M112.26 88.285l22.05 38.9s-18.046 17.594-20.594 16.754c-2.55-.84-10.306-7.846-10.306-7.846s-7.416-4.202-11.3-5.124l-29.093-13.005 8.44-41.19s28.653 3.444 29.502 3.726c.848.28 11.3 7.785 11.3 7.785"/><path clip-path="url(#d)" fill="#808991" d="M103.854 94.965l6.564 9.242L99.03 93.682"/><path clip-path="url(#d)" fill="#BECED6" d="M106.67 86.72s.568-.644 1.36-1.445c2.28 1.613 4.23 3.01 4.23 3.01l14.526 25.63c-.354.495-.795.806-1.404.846-2.235.14-8.313-1.232-8.313-1.232L103.882 94.13l2.786-7.41z"/><g opacity=".55" clip-path="url(#d)"><defs><path id="q" d="M66.322 76.57h51.376v28.634H66.322z"/></defs><clipPath id="r"><use xlink:href="#q" overflow="visible"/></clipPath><path clip-path="url(#r)" fill="#6BA1B8" d="M107.753 100.13s-18.916 8.257-41.432 3.706l4.373-27.265s29.416 3.65 30.266 3.93c.85.282 11.3 7.785 11.3 7.785l5.438 9.598c-1.893-.244-5.54-.223-9.945 2.247"/></g><path clip-path="url(#d)" fill="#347382" d="M76.576 89.925s1.154 6.125 9.333 6.934c0 0-5.78.097-6.72-13.11 0 0-1.38 5.994.214 8.276 0 0-2.543-1.89-3.837-7.24l1.01 5.14z"/><path clip-path="url(#d)" fill="#02455D" d="M95.95 100.265c5.863-.916 11.785-8.617 11.785-8.617s1.245-9.6-1.733-12.382c-2.87-2.69-6.843-4.398-11.187-4.815-1.11-.105-2.224-.126-3.32-.06-7.786.485-13.873 5.345-14.472 11.554-.34 3.57-.03 9.668 3.685 12.91 3.484 3.04 13.64 1.694 15.243 1.41"/><path clip-path="url(#d)" fill="#237AAF" d="M103.936 94.263c-2.098 2.067-5.183 4.558-8.248 5.036-1.485.26-10.868 1.506-14.092-1.304-1.52-1.33-2.423-3.172-2.93-5.105l25.27 1.373z"/><path clip-path="url(#d)" fill="#02455D" d="M106.916 92.57s-2.686-2.955-2.61-3.708c.08-.754 2.37-4.636 2.99-4.673.11-.008 1.514.93 1.864.887 1.79 1.272 3.546 3.037 3.546 3.037l2.163 3.926c-.892-.438-4.693-1.842-7.954.53"/><path clip-path="url(#d)" fill="#808991" d="M65.88 81.014s-7.117 3.272-9.937 6.107l6.908-1.26s-5.113 3.314-6.65 5.407l6.09-1.045s-6.782 5.912-7.074 6.596c-.292.686 9 .275 9 .275l-.19 8.318.34 7.482 7.972-35.107-4.7-2.28-1.758 5.51z"/><path clip-path="url(#d)" fill="#808991" d="M66.724 95.677l-11.816 9.465 8.414-.975-6.62 9.05 7.663-.325"/><path clip-path="url(#d)" fill="#D9E2E4" d="M117.605 112.428l4.162.395s-5.013-.356-6.88 1.756c0 0-5.114-4.935-9.626-.894 1.03-1.723 2.882-2.93 5.054-3.066 1.486-.09 2.875.333 4.007 1.113l.017-.013c.033.034.066.063.104.094.11.08.217.168.32.254 1.216.81 2.737.35 2.737.35l.04.03.068-.02"/><path clip-path="url(#d)" fill="#C67929" d="M55.322 63.116s5.764-4.693 17.224-4.602l-2.393 11.652-15.303.41.472-7.46z"/><path clip-path="url(#d)" fill="#E5AF33" d="M131.026 70.513s8.063 1.646 11.664 4.635c3.37 2.8 6.422 7.726-2.56 10.657-4.808 1.565-24.417 6.45-43.374 4.287-18.794-2.136-27.857-5.822-34.68-9.484-7.215-3.88-8.486-7.345-8.275-10.08.217-2.733 4.648-2.75 9.234-4.125 4.585-1.374 7.167-2.325 7.167-2.325l60.826 6.435z"/><path clip-path="url(#d)" fill="#F8DC35" d="M131.026 70.513s8.063 1.646 11.664 4.635c3.37 2.8 6.422 7.726-2.56 10.657-4.808 1.565-24.417 6.45-43.374 4.287-18.794-2.136-27.857-5.822-34.68-9.484-7.215-3.88-8.486-7.345-8.275-10.08.217-2.733 4.648-2.75 9.234-4.125 4.585-1.374 7.167-2.325 7.167-2.325l60.826 6.435z"/><path clip-path="url(#d)" fill="#EA9B2E" d="M53.802 70.527c.216-2.732 4.647-2.75 9.233-4.124 4.585-1.375 7.167-2.326 7.167-2.326l59.524 6.297.313 5.275-12.87 14.482c-6.38.594-13.44.754-20.412-.04-18.794-2.137-27.857-5.822-34.68-9.485-7.216-3.88-8.487-7.345-8.276-10.08"/><path clip-path="url(#d)" fill="#E4CE78" d="M59.23 78.164c.462.275.947.552 1.468.833 6.822 3.664 15.887 7.347 34.68 9.488 18.958 2.158 38.566-2.723 43.374-4.29 3.373-1.1 5.05-2.48 5.65-3.926.15-.368.228-.74.25-1.11.028.507-.045 1.02-.253 1.524-.604 1.445-2.278 2.828-5.652 3.925-4.807 1.566-24.416 6.447-43.373 4.29-18.792-2.14-27.86-5.822-34.68-9.487-.52-.28-1.007-.56-1.47-.834l.006-.416z"/><path clip-path="url(#d)" fill="#D08A2A" d="M74.098 85.743c-5.175-1.718-9.44-3.506-12.02-5.135-6.926-4.378-8.487-7.345-8.276-10.08.147-1.91-.79-4.786 1.52-7.412-1.64 9.325 16.886 21.592 18.776 22.627"/><path clip-path="url(#d)" fill="#489BD4" d="M93.074 74.4c-.183.008-.315.005-.38-.016-.11-.04.05-.028.38.017"/><path clip-path="url(#d)" fill="#64ACCE" d="M105.776 123.823l-.015-.01c.77-1.76-.512-3.79-.512-3.79l.037.008c-.502-.824-.82-1.776-.882-2.803-.214-3.432 2.434-6.39 5.91-6.607 1.486-.09 2.876.333 4.007 1.113l.016-.013c.033.034.066.063.104.094.11.08.214.168.32.254 1.215.81 2.735.35 2.735.35l.04.03c8.04-2.367 16.695.1 16.695.1 1.816.287 3.578-.264 4.696-.75.355-.224.732-.415 1.135-.57.047-.025.074-.045.074-.045l.013.014c.563-.205 1.165-.337 1.794-.375 3.484-.217 6.477 2.39 6.69 5.824.15 2.42-1.126 4.6-3.106 5.752-1.795 1.332-.736 3.048-.736 3.048s-.012.006-.044.014c.208.46.318.727.318.727l3.51 8.268c3.645 9.464-5.287 8.288-5.287 8.288l-2.793 9.02-1.317 2.91c4.526 3.214.007 8.153.007 8.153.85-2.384-.918-4.105-.918-4.105 1.852 3.053-1.36 4.913-1.36 4.913.735-1.544-.413-3.968-.413-3.968 1.027 3.098-1.7 4.766-1.7 4.766.756-1.21.428-3.853.428-3.853-.427 3.854-3.234 4.19-3.234 4.19 1.255-1.237.912-4.048.912-4.048-.272 3.677-4.218 4.424-4.218 4.424 1.107-.905 1.742-4.105 1.742-4.105-.665 2.703-3.327 2.702-3.327 2.702 1.45-.756 2.302-3.138 2.302-3.138-3.11 3.52-6.403 4.058-6.403 4.058 1.306-.41 2.6-3.657 2.6-3.657l-2.913 1.35 1.015-1.147c-.93.806-3.524.968-3.524.968l1.126-.736c-1.125.736-4.238 1.432-4.238 1.432 1.47-.428 2.506-2.485 2.506-2.485-4.797 3.124-9.737 1.27-9.737 1.27.815-.218 3.057-1.688 3.057-1.688-3.057 1.687-7.656-.027-7.656-.027 2.01.212 4.276-.763 4.276-.763-1.616.77-5.187-.51-5.187-.51 1.687.393 3.554-1.72 3.554-1.72-1.14.404-4.02-.415-4.02-.415 2.686.334 2.924-1.18 2.924-1.18-2.756-4.154-3.643-10.425-3.643-10.425-.91-9.514.524-16.32 2.646-21.107"/><path clip-path="url(#d)" fill="#A5B0BA" d="M127.093 163.742c1.45-.757 2.3-3.138 2.3-3.138-3.11 3.52-6.402 4.058-6.402 4.058 1.308-.41 2.603-3.657 2.603-3.657l-2.914 1.35 1.014-1.147c-.93.806-3.522.968-3.522.968l1.124-.736c-1.124.736-4.237 1.432-4.237 1.432 1.467-.43 2.504-2.485 2.504-2.485-4.796 3.124-9.738 1.27-9.738 1.27.816-.218 3.058-1.69 3.058-1.69-3.058 1.69-7.656-.025-7.656-.025 2.008.21 4.276-.763 4.276-.763-1.615.767-5.187-.51-5.187-.51 1.687.392 3.554-1.72 3.554-1.72-1.14.403-4.02-.417-4.02-.417 2.685.334 2.923-1.178 2.923-1.178-2.754-4.156-3.642-10.426-3.642-10.426-.395-4.148-.347-7.783.012-10.963.676 1.428 2.03 3.5 2.03 3.5s4.912 6.866 5.18 7.182c.27.314 2.71 2.08 2.71 2.08l11.566.03 11.563-1.384 6.128.506-1.82 5.882-1.318 2.912c4.526 3.212.007 8.152.007 8.152.848-2.386-.92-4.106-.92-4.106 1.852 3.052-1.36 4.912-1.36 4.912.737-1.544-.412-3.968-.412-3.968 1.026 3.098-1.7 4.766-1.7 4.766.756-1.21.427-3.854.427-3.854-.426 3.854-3.235 4.192-3.235 4.192 1.256-1.24.913-4.05.913-4.05-.272 3.678-4.217 4.425-4.217 4.425 1.107-.906 1.74-4.105 1.74-4.105-.668 2.704-3.33 2.702-3.33 2.702"/><path clip-path="url(#d)" fill="#808991" d="M105.17 137.465s-1.775 7.43 7.245 11.56c0 0 7.383 3.837 18.51.91 0 0 2.957-2.506 2.982-2.77.03-.264-.05-3.635-.205-4.018-.155-.388-3.297-1.552-3.297-1.552l-6.318-.132-11.308-1.402-7.61-2.595z"/><path clip-path="url(#d)" fill="#E8E7D2" d="M108.035 140.757c7.777 7.155 22.448 2.375 22.448 2.375 1.4-.76 2.7-1.263 3.89-1.58.59.27.98.465.983.502.01.165-5 7.3-5 7.3-8.416 1.065-12.418.313-12.418.313-11.52-2.59-12.02-9.924-12.02-11.175 1.146 1.457 2.117 2.265 2.117 2.265"/><path clip-path="url(#d)" fill="#C0C2CB" d="M130.354 145.902c.053.413.244 1.84.385 2.913l-.382.54c-.57.072-1.118.137-1.65.192l.002-.01c.7-.083.62-.702.62-.702l.11-5.404c.35-.096.617-.17.793-.224.025.967.07 2.305.12 2.696M124.997 149.846c-.512.025-.99.045-1.445.056.208-.035.51-.17.476-.694l.16-4.77c.14-.02.28-.035.412-.05h.003l-.158 4.878s.034.475.552.58M119.49 149.155s-.154.553.372.705c-.622-.035-1.09-.08-1.408-.122-.008-.01-.013-.02-.013-.02s.632.088.632-.618l.324-4.417c.145.004.28.007.422.006l-.327 4.465zM114.51 147.968s-.25.482.185.745c-.425-.157-.83-.323-1.212-.49.165.028.545.037.66-.5l.95-3.522c.14.033.282.058.426.084l-1.01 3.684z"/><path clip-path="url(#d)" fill="#EECBA4" d="M108.968 145.19s.39.372.692-.268l1.218-2.194c.127.066.253.135.38.198l-1.3 2.322s-.413.46.062.834l-.03.053c-.376-.305-.714-.612-1.026-.922.004-.012.004-.022.004-.022"/><path clip-path="url(#d)" fill="#E8E7D2" d="M129.9 141.978s2.865-3.465 3.362-3.495c.496-.03 10.875-1.757 11.21-.364.336 1.394-1.187 4.623-1.187 4.623l1.202 7.692s.31.978-1.1 1.064l-3.637.25v-.01s-1.11.125-1.287-.998l-.334.023s.054 1.146-1.184 1.178h-.005l-5.19.444s-1.77.235-2.02-1.08l.17-9.33z"/><path clip-path="url(#d)" fill="#C0C2CB" d="M108.035 140.757c6.842 6.294 19.012 3.35 21.844 2.553l.02-1.333s2.865-3.465 3.362-3.495c.496-.03 10.875-1.757 11.21-.364.336 1.395-1.187 4.624-1.187 4.624l.297 1.888c-1.41-.774-6.634-3.014-14.77.767 0 0-9.485 2.69-18.12 1.263-4.508-3.173-4.773-7.263-4.774-8.167 1.146 1.456 2.117 2.264 2.117 2.264"/><path clip-path="url(#d)" fill="#C2DAE3" d="M130.483 143.133s-14.67 4.78-22.448-2.375c0 0-3.188-2.645-4.865-7.034.475-3.992 1.434-7.256 2.606-9.9l-.014-.012c.768-1.76-.514-3.79-.514-3.79l.037.01c-.502-.826-.818-1.778-.882-2.805-.214-3.432 2.435-6.39 5.91-6.606 1.486-.09 2.875.333 4.007 1.113l.016-.013c.032.035.066.063.104.094.11.08.214.168.32.254 1.215.81 2.734.35 2.734.35l.04.032c8.042-2.37 16.696.098 16.696.098 1.816.287 3.577-.264 4.696-.75.354-.224.73-.415 1.135-.57.046-.025.075-.045.075-.045l.01.014c.564-.205 1.167-.337 1.795-.375 3.485-.217 6.477 2.39 6.688 5.824.152 2.42-1.124 4.6-3.105 5.752-1.795 1.332-.736 3.048-.736 3.048s-.012.006-.045.015c.21.46.318.728.318.728l3.51 8.267c3.646 9.465-5.286 8.288-5.286 8.288s-4.723-3.982-12.8.39"/><path clip-path="url(#d)" fill="#C0C2CB" d="M130.483 143.133s-14.67 4.78-22.448-2.375c0 0-3.188-2.645-4.865-7.034.475-3.992 1.434-7.256 2.606-9.9l-.014-.012c.768-1.76-.514-3.79-.514-3.79l.037.01c-.502-.826-.818-1.778-.882-2.805-.214-3.432 2.435-6.39 5.91-6.606 1.486-.09 2.875.333 4.007 1.113l.016-.013c.032.035.066.063.104.094.11.08.214.168.32.254 1.215.81 2.734.35 2.734.35l.04.032c8.042-2.37 16.696.098 16.696.098 1.816.287 3.577-.264 4.696-.75.354-.224.73-.415 1.135-.57.046-.025.075-.045.075-.045l.01.014c.564-.205 1.167-.337 1.795-.375 3.485-.217 6.477 2.39 6.688 5.824.152 2.42-1.124 4.6-3.105 5.752-1.795 1.332-.736 3.048-.736 3.048s-.012.006-.045.015c.21.46.318.728.318.728l3.51 8.267c3.646 9.465-5.286 8.288-5.286 8.288s-4.723-3.982-12.8.39"/><path clip-path="url(#d)" fill="#C0C2CB" d="M105.266 113.683c1.03-1.722 2.878-2.927 5.05-3.062 1.486-.09 2.874.333 4.006 1.113l.015-.013c.034.035.067.063.105.094.11.08.214.168.32.254 1.215.81 2.734.35 2.734.35l.04.032c8.042-2.37 16.696.098 16.696.098 1.816.287 3.578-.264 4.696-.75.355-.224.73-.415 1.135-.57.046-.025.074-.045.074-.045l.012.015c.56-.206 1.164-.338 1.792-.376.298-.018.588-.01.876.012 1.74 2.288 3.7 5.202 5.463 8.26-.495 1.386-1.478 2.56-2.755 3.304-1.795 1.332-.736 3.048-.736 3.048s-.013.006-.046.015c.21.46.318.728.318.728l3.51 8.267c.61 1.585.862 2.867.87 3.91-1.656 1.724-3.65 3.203-5.485 4.424-.406-.012-.67-.047-.67-.047s-4.727-3.982-12.804.39c0 0-2.652.86-6.295 1.304 3.396-19.698-4.535-25.493-4.535-25.493l-1.813.28c-2.45-10-12.578-5.538-12.578-5.538l.004-.003z"/><path clip-path="url(#d)" fill="#D9E2E4" d="M119.653 118.943s-8.664 5.196-6.205 23.35l16.452-.316s.953-3.428.85-5.085c-.103-1.66-2.19-8.516-3.66-10.757-1.472-2.237-7.437-7.192-7.437-7.192"/><path clip-path="url(#d)" fill="#808991" d="M105.776 123.823l-.015-.01c.77-1.76-.512-3.79-.512-3.79l.037.008c-.502-.824-.82-1.776-.882-2.803-.078-1.286.242-2.506.857-3.54.003-.004 9.96-1.786 9.46 6.228 0 0-3.695 3.834-10.073 6.885.345-1.067.723-2.063 1.13-2.977"/><path clip-path="url(#d)" fill="#02455D" d="M108.18 118.075c.113 1.82 1.735 3.2 3.624 3.08 1.885-.114 3.33-1.686 3.215-3.503-.114-1.82-1.736-3.2-3.627-3.085-1.887.118-3.33 1.69-3.214 3.508"/><path clip-path="url(#d)" fill="#D9E2E4" d="M136.237 136.8s1.816-21.43-10.264-25.368c4.686.1 8.26 1.116 8.26 1.116s6.016 1.133 10.51 12.913c.21.46.32.728.32.728l3.508 8.267c3.648 9.465-5.284 8.288-5.284 8.288s-4.726-3.982-12.803.39c0 0-14.67 4.78-22.448-2.375 0 0 18.27 4.896 28.202-3.957"/><path clip-path="url(#d)" fill="#D9E2E4" d="M115.918 112.504c.85.13 1.578-.085 1.578-.085l.04.03c8.042-2.37 16.696.098 16.696.098.19.03.386.045.576.06.854 1.38 1.684 2.75 2.323 3.753 1.842 2.883 3.246 12.112-1.535 4.755-4.782-7.357-19.662-8.43-19.662-8.43l-.015-.18z"/><path clip-path="url(#d)" fill="#D9E2E4" d="M133.135 116.277s-8.422-1.64-15.294 2.946c0 0 14.62-3.07 19.01.65l-3.715-3.596z"/><path clip-path="url(#d)" fill="#F8DC35" d="M65.045 75.957s3.603-25.627 4.445-29.17c.844-3.546 1.35-7.422 5.04-9.237 3.687-1.813 5.194-3.183 13.15-2.53 7.956.656 17.462 3.23 17.462 3.23s2.662-1.558 4.985-2.46c2.318-.904 3.412-1.16 4.355-.56.95.6 1.953 2.843 2.75 4.824.807 1.978 8.354 19.995 9.69 23.426 1.332 3.43 2.895 12.188 2.895 12.188l-64.772.29z"/><path clip-path="url(#d)" fill="#EA9B2E" d="M69.49 46.785c.843-3.544 1.35-7.42 5.04-9.236 3.686-1.814 5.193-3.183 13.15-2.53 7.956.656 17.46 3.23 17.46 3.23l.048-.03 8.663 39.382-48.806-1.646s3.604-25.626 4.445-29.17"/><path clip-path="url(#d)" fill="#3283C0" d="M127.86 64.735s-13.682 2.393-26.684 2.294c-13.743-.11-26.803-.868-34.33-4.084 0 0-2.217 4.98-2.606 11.423 0 0 7.457 3.743 23.09 5.18 15.175 1.394 23.814.447 32.668-.93 7.715-1.203 10.635-2.683 11.315-2.938.687-.26-3.452-10.947-3.452-10.947"/><path clip-path="url(#d)" fill="#EA9B2E" d="M105.142 38.25s6.48-2.58 8.11-1.516c1.62 1.064 2.818 4.495-8.11 1.516"/><path clip-path="url(#d)" fill="#489BD4" d="M83.22 66.055S81.62 73.76 81.487 79.11l-6.884-1.197s-.138-5.873 2.003-12.61l6.616.752z"/><path clip-path="url(#d)" fill="#B1B3BA" d="M76.787 79.246s.925-37.173 1.55-46.192c.624-9.017.485-14.207.485-14.207s29.346 9.01 31.23 6.032c1.353-2.136-11.92-14.534-17.44-18.555C85.286.99 72.275-2.388 67.543 4.67c-2.97 4.426-1.488 16.615-.23 29.326 1.066 10.753.81 38.12 3.517 45.765 0 0 2.413 1.38 3.545 1.124 1.135-.256 2.412-1.638 2.412-1.638"/><path clip-path="url(#d)" fill="#BECED6" d="M71.34 34.49c-.16-6.093-.415-12.477.322-18.357 2.75 1.163 6.762 2.543 7.198 2.71.02 1.2.017 6.417-.523 14.21-.625 9.02-1.47 46.105-1.47 46.105s-1.356 1.47-2.49 1.726c-.05.012-.1.008-.148.016-.954-3.202-2.713-39.768-2.89-46.41"/><path clip-path="url(#d)" fill="#1F6690" d="M51.137 106.1s.594 10.103 44.967 18.225l-3.764 13.272 6.735 1.585S77.88 236.05 32.318 255.066c0 0-14.857-9.707-19.215-36.845 0 0 34.865-10.895 40.015-46.353l.99-36.647 1.585-5.547S50.94 108.28 51.137 106.1"/><path clip-path="url(#d)" fill="#1F6690" d="M51.137 106.1s.594 10.103 44.967 18.225l-3.764 13.272 6.735 1.585s-19.81 95.084-65.766 116.082c0 0-19.018-14.065-23.376-41.203 0 0 34.072-11.093 43.184-42.192l.99-36.647 1.585-5.546S50.94 108.28 51.137 106.1"/><path clip-path="url(#d)" fill="none" stroke="#E1C43B" stroke-width=".429" stroke-dasharray="1.288,1.288" d="M52.524 110.458s.594 8.518 40.213 15.253l-3.764 13.273 6.933 1.98s-16.838 82.012-62.993 111.13"/><g opacity=".28" clip-path="url(#d)"><defs><path id="s" d="M44.666 162.556h14.527v14.13H44.666z"/></defs><clipPath id="t"><use xlink:href="#s" overflow="visible"/></clipPath><path clip-path="url(#t)" fill="#221F1F" d="M53.118 173.122s5.415-4.888 6.075-10.565c0 0-3.434 6.34-5.018 7.396l1.32-4.228s-3.037 5.02-3.962 5.812c-.924.793-5.943 2.64-5.943 2.64l-.924 2.51 4.49-1.32 3.962-2.245z"/></g><g opacity=".28" clip-path="url(#d)"><defs><path id="u" d="M34.024 106.1H64.21v41.477H34.025z"/></defs><clipPath id="v"><use xlink:href="#u" overflow="visible"/></clipPath><path clip-path="url(#v)" fill="#221F1F" d="M61.042 135.813c-.198-1.783-4.358-5.35-4.358-5.35.203.03.403.088.602.148.11.036.22.07.33.11 3.718 1.42 6.595 7.668 6.595 7.668-.395-4.358-4.95-8.716-4.95-8.716l-3.567-8.518 2.774 2.972-4.953-14.065.186-.305c-2.477-2.222-2.563-3.656-2.563-3.656-.185 2.043 3.99 21.004 4.504 23.336l-4.7 1.028-16.84 14.46-.076 2.652 19.094-15.13c.428-.054 1.028.11 1.676.375v.003c1.2.492 2.565 1.336 3.31 1.823l.043.027.13.085.143.096.245.167c0-.594-2.343-2.527-3.512-3.455-.387-.307-.648-.506-.648-.506.216.02.464.096.732.21v.004c2.188.927 5.805 4.54 5.805 4.54"/></g><path clip-path="url(#d)" fill="none" stroke="#E1C43B" stroke-width=".429" stroke-dasharray="1.288,1.288" d="M136.317 160.773s-5.547 25.356 2.377 56.258c0 0 15.253 25.952 16.046 27.338"/></g><g clip-path="url(#b)"><defs><path id="w" d="M-122.5-29.64h442.667V321.5H-122.5z"/></defs><clipPath id="x"><use xlink:href="#w" overflow="visible"/></clipPath><path clip-path="url(#x)" fill="#BECED6" d="M18.574 159.97s-2.15 1.177-4.31.417c-2.158-.76-12.296-6.13-12.296-6.13s-.99-.546-1.086-2.317c-.098-1.77 1.13-11.403 4.632-12.694 0 0 4.54-2.007 8.114 1.25 3.574 3.258 2.098 4.377 2.098 4.377s-.144 5.718-.087 6.394c.056.675 2.934 8.703 2.934 8.703"/><path clip-path="url(#x)" fill="#B1B3BA" d="M1.968 154.256s10.14 5.37 12.297 6.13c2.158.76 4.31-.416 4.31-.416s-.556-1.547-1.182-3.34c-1.82-1.5-4.03-3.182-4.03-3.182l-3.747-.992s-4.553.676-8.495.656c.322.847.848 1.144.848 1.144"/><g clip-path="url(#x)"><defs><path id="y" d="M6.297 139.26h12.277v21.333H6.297z"/></defs><clipPath id="z"><use xlink:href="#y" overflow="visible"/></clipPath><path clip-path="url(#z)" fill="#B1B3BA" d="M18.574 159.97s-2.878-8.027-2.935-8.703c-.058-.676.086-6.394.086-6.394s1.476-1.12-2.098-4.376c-.61-.557-1.25-.95-1.89-1.237-1.46 2.772-4.32 8.705-5.37 14.414 0 0-.582.538 1.592 2.31 1.153.938 5.11 2.94 8.572 4.61 1.18-.155 2.042-.624 2.042-.624"/></g><path clip-path="url(#x)" fill="#BECED6" d="M25.908 136.525s-7.11-1.126-9.97.948c0 0-7.775 7.097-7.214 16.21 0 0-.544.988 1.432 2.078 1.977 1.09 10.89 5.57 10.89 5.57s4.654-.655 3.636-4.652c-1.02-3.997-.992-6.774-.992-6.774s3.502-11.813 3.774-12.307c.273-.493-1.556-1.072-1.556-1.072"/><path clip-path="url(#x)" fill="#B1B3BA" d="M21.045 161.33s4.656-.655 3.637-4.652c-.252-.99-.44-1.905-.58-2.723-1.785-.61-3.65-1.23-3.65-1.23s-4.664 3.034-11.777 1.48c.073.392.396.958 1.482 1.556 1.976 1.09 10.888 5.57 10.888 5.57"/><path clip-path="url(#x)" fill="#D9E2E4" d="M46.74 143.924l-4.945-8.952s-8.014-3.77-14.344-1.246l-7.418 15.023s-.793 2.997.673 4.233c1.466 1.237 9.164 8.7 9.164 8.7l9.35-.216 3.36-6.094 4.16-11.45z"/><g clip-path="url(#x)"><defs><path id="A" d="M17.97 136.4h9.522v23.02h-9.52z"/></defs><clipPath id="B"><use xlink:href="#A" overflow="visible"/></clipPath><path clip-path="url(#B)" fill="#B1B3BA" d="M24.682 156.68c-1.02-3.998-.992-6.775-.992-6.775s3.502-11.812 3.775-12.306c.272-.496-1.557-1.074-1.557-1.074s-.385-.06-.996-.125l-6.726 13.622s-.794 2.998.672 4.235c.775.654 3.294 3.05 5.495 5.162.428-.67.63-1.555.33-2.74"/></g><path clip-path="url(#x)" fill="#B1B3BA" d="M20.266 152.462c.117.194.26.37.44.522 1.464 1.237 9.163 8.7 9.163 8.7l9.35-.217-4.797-8.44s-8.267 1.064-14.157-.565"/><path clip-path="url(#x)" fill="#BECED6" d="M27.45 133.726s-.89 1.227-4.355 7.907c-3.466 6.68-3.062 7.116-3.062 7.116s-.695 2.626.418 3.978c5.952 1.237 15.15 1.502 13.974.3-1.375-1.4-.417-4.31-.417-4.31s3.384-8.87 4.655-11.176c1.27-2.306 3.133-2.568 3.133-2.568s-8.014-3.774-14.344-1.248M177.582 161.902s1.733 1.734 4.02 1.612c2.283-.12 13.523-2.422 13.523-2.422s1.103-.245 1.694-1.917c.59-1.673 2.125-11.26-.873-13.484 0 0-3.793-3.203-8.14-1.083-4.345 2.12-3.243 3.61-3.243 3.61s-1.472 5.527-1.716 6.16c-.244.632-5.266 7.525-5.266 7.525"/><path clip-path="url(#x)" fill="#B1B3BA" d="M195.125 161.093s-11.24 2.3-13.524 2.422c-2.284.122-4.018-1.613-4.018-1.613s.97-1.328 2.074-2.872c2.167-.93 4.762-1.92 4.762-1.92l3.876.105s4.178 1.928 7.967 3.02c-.547.72-1.135.858-1.135.858"/><g clip-path="url(#x)"><defs><path id="C" d="M177.582 143.953h13.66v19.122h-13.66z"/></defs><clipPath id="D"><use xlink:href="#C" overflow="visible"/></clipPath><path clip-path="url(#D)" fill="#B1B3BA" d="M177.582 161.902s5.02-6.894 5.267-7.525c.243-.632 1.715-6.16 1.715-6.16s-1.102-1.49 3.244-3.61c.74-.362 1.467-.56 2.16-.654.62 3.07 1.696 9.568 1.098 15.343 0 0 .406.68-2.177 1.767-1.37.577-5.732 1.384-9.523 2.013-1.09-.48-1.785-1.174-1.785-1.174"/></g><path clip-path="url(#x)" fill="#BECED6" d="M177.143 137.34s7.14.922 9.3 3.717c0 0 5.465 8.998 2.36 17.585 0 0 .244 1.102-1.96 1.59-2.202.49-12.015 2.28-12.015 2.28s-4.283-1.94-2.18-5.488c2.102-3.548 2.857-6.22 2.857-6.22s-.036-12.32-.158-12.872c-.122-.55 1.796-.59 1.796-.59"/><path clip-path="url(#x)" fill="#B1B3BA" d="M174.828 162.513s-4.283-1.94-2.18-5.488c.52-.88.958-1.705 1.322-2.45 1.885-.082 3.85-.15 3.85-.15s3.62 4.222 10.883 4.734c-.18.353-.65.806-1.86 1.073-2.202.49-12.015 2.28-12.015 2.28"/><path clip-path="url(#x)" fill="#D9E2E4" d="M155.07 138.577l7.266-7.198s8.75-1.364 14.115 2.84l2.89 16.504s-.082 3.1-1.836 3.875c-1.755.772-11.242 5.767-11.242 5.767l-8.914-2.84-1.506-6.792-.772-12.158z"/><g clip-path="url(#x)"><defs><path id="E" d="M172.072 137.34h8.683v22.407h-8.683z"/></defs><clipPath id="F"><use xlink:href="#E" overflow="visible"/></clipPath><path clip-path="url(#F)" fill="#B1B3BA" d="M172.647 157.024c2.102-3.55 2.858-6.22 2.858-6.22s-.036-12.322-.158-12.872c-.122-.55 1.795-.59 1.795-.59s.387.05.99.16l2.622 14.962s-.082 3.1-1.837 3.875c-.93.41-4.02 2-6.727 3.407-.22-.762-.167-1.67.457-2.723"/></g><path clip-path="url(#x)" fill="#B1B3BA" d="M178.07 154.222c-.166.153-.353.283-.567.377-1.755.774-11.24 5.77-11.24 5.77l-8.914-2.84 6.978-6.75s7.633 3.348 13.743 3.442"/><path clip-path="url(#x)" fill="#BECED6" d="M176.45 134.22s.51 1.428 1.955 8.813c1.445 7.385.936 7.69.936 7.69s-.072 2.717-1.52 3.7c-6.058-.488-14.96-2.823-13.492-3.645 1.714-.958 1.613-4.02 1.613-4.02s-.75-9.463-1.32-12.035c-.57-2.57-2.284-3.346-2.284-3.346s8.752-1.36 14.114 2.843"/></g></svg>